<?xml version="1.0" standalone="no"?>
<!DOCTYPE svg PUBLIC "-//W3C//DTD SVG 20010904//EN"
 "http://www.w3.org/TR/2001/REC-SVG-20010904/DTD/svg10.dtd">
<svg version="1.0" xmlns="http://www.w3.org/2000/svg"
 width="625.000000pt" height="357.000000pt" viewBox="0 0 625.000000 357.000000"
 preserveAspectRatio="xMidYMid meet">

<g transform="translate(0.000000,357.000000) scale(0.100000,-0.100000)"
fill="#000000" stroke="none">
<path d="M2656 2132 c-2 -4 1 -35 8 -69 8 -34 12 -65 10 -68 -2 -3 -1 -3 3 0
3 3 11 1 17 -4 6 -5 37 -14 69 -21 55 -11 60 -10 78 9 11 12 23 22 27 22 4 1
19 3 34 4 15 2 37 9 50 16 26 15 38 11 -129 39 -40 6 -73 15 -73 19 0 4 33 4
73 0 123 -13 177 -10 102 5 -16 3 -73 17 -125 31 -99 26 -136 30 -144 17z"/>
<path d="M3395 2095 c-16 -7 -54 -24 -84 -36 -49 -21 -52 -24 -30 -29 13 -4
68 -10 122 -14 l97 -7 30 33 c39 43 38 54 -7 62 -59 9 -95 7 -128 -9z"/>
<path d="M3602 2093 c-11 -4 -52 -73 -52 -88 0 -3 17 -4 38 -4 20 1 29 3 20 6
-10 2 -18 9 -18 14 0 16 31 23 40 9 12 -20 130 15 130 39 0 23 -116 41 -158
24z"/>
<path d="M3846 1991 c-10 -11 -15 -25 -10 -32 4 -7 3 -10 -4 -5 -6 3 -15 -2
-21 -11 -6 -10 -11 -13 -11 -6 0 24 -79 36 -160 23 -120 -19 -170 -31 -170
-41 0 -15 27 -22 57 -14 21 5 24 8 12 16 -11 7 -9 9 9 9 35 0 22 -21 -23 -37
-36 -12 -40 -12 -63 9 -14 13 -22 17 -17 9 6 -11 4 -13 -11 -6 -81 34 -152
-16 -168 -118 -4 -23 -14 -53 -23 -66 -14 -22 -19 -23 -97 -18 -107 6 -257 43
-302 73 l-37 25 -49 -18 c-45 -16 -48 -19 -31 -31 37 -29 241 -122 313 -143
108 -31 332 -38 471 -14 56 9 107 19 113 21 6 2 11 -6 11 -20 0 -23 -8 -27
-80 -48 -69 -19 -103 -23 -245 -22 -182 0 -234 9 -391 68 -50 19 -86 29 -80
23 7 -7 6 -14 -5 -22 -13 -9 0 -19 78 -58 138 -69 241 -92 413 -91 160 1 270
25 415 89 136 59 277 160 242 172 -10 4 -10 8 0 20 7 9 -10 2 -38 -15 -28 -18
-76 -43 -108 -57 -55 -24 -56 -24 -46 -4 11 19 10 20 -12 14 -12 -4 18 18 68
47 193 116 218 140 189 185 -16 23 -85 62 -112 63 -7 0 -14 -12 -15 -27 0 -16
-4 -6 -7 22 -7 56 -26 68 -55 36z m24 -21 c-9 -16 -8 -18 5 -14 10 4 15 0 15
-15 0 -12 -5 -21 -12 -21 -6 0 -3 -7 8 -15 19 -15 19 -15 -5 -35 -12 -11 -27
-17 -32 -14 -10 6 -8 42 4 61 6 9 3 11 -8 7 -14 -6 -14 -2 1 30 10 20 22 36
26 36 5 0 4 -9 -2 -20z m-353 -56 c-3 -3 -12 -4 -19 -1 -8 3 -5 6 6 6 11 1 17
-2 13 -5z m-48 -47 c0 -21 -1 -21 -9 -2 -12 28 -12 37 0 30 6 -3 10 -16 9 -28z
m-42 -16 c22 -29 16 -96 -13 -130 -51 -60 -132 -31 -119 43 l7 35 29 -15 c25
-13 28 -18 18 -35 -6 -11 -8 -28 -4 -37 6 -16 7 -15 17 1 5 10 7 25 4 33 -7
18 8 18 24 -1 9 -10 9 -15 1 -15 -6 0 -11 -5 -11 -10 0 -6 8 -5 19 2 11 7 17
16 15 20 -3 4 0 8 7 8 22 0 0 13 -23 14 -13 0 -24 7 -24 14 -1 6 -2 17 -3 23
-1 8 -6 8 -16 -1 -9 -7 -16 -11 -18 -9 -21 38 -25 49 -18 54 5 3 12 -1 15 -7
4 -7 4 -3 2 10 -8 45 58 47 91 3z m373 31 c0 -5 -26 -15 -57 -22 -49 -10 -190
-57 -255 -85 -13 -5 -18 -2 -18 10 0 9 4 13 10 10 5 -3 29 5 53 19 61 36 123
57 192 66 33 4 63 8 68 9 4 0 7 -3 7 -7z"/>
<path d="M3350 1849 c0 -24 23 -21 28 4 2 10 -3 17 -12 17 -10 0 -16 -9 -16
-21z"/>
<path d="M3386 1844 c-11 -28 -7 -46 9 -40 9 3 15 0 15 -9 0 -7 4 -16 8 -19 4
-2 8 4 8 15 0 10 -4 19 -9 19 -4 0 -5 4 -2 10 4 6 -1 7 -12 3 -15 -5 -16 -3
-5 8 6 7 12 17 12 21 0 14 -18 8 -24 -8z"/>
<path d="M3315 1762 c-15 -10 -13 -34 3 -39 6 -3 12 0 12 5 0 6 3 17 6 26 6
17 -4 21 -21 8z"/>
<path d="M3768 1973 c7 -3 16 -2 19 1 4 3 -2 6 -13 5 -11 0 -14 -3 -6 -6z"/>
<path d="M3080 1930 c-30 -10 -68 -19 -85 -19 -23 -1 -27 -4 -15 -11 27 -17
67 -11 125 20 65 34 56 37 -25 10z"/>
<path d="M2720 1881 c0 -51 9 -61 53 -61 20 0 22 5 23 55 l0 55 -38 0 -38 0 0
-49z"/>
<path d="M2840 1871 c0 -43 49 -77 122 -85 50 -5 59 -4 68 13 22 42 13 58 -40
71 -48 12 -114 6 -94 -8 12 -9 17 -35 5 -28 -5 4 -12 0 -15 -6 -4 -7 -4 4 -2
24 3 26 0 38 -11 42 -27 11 -33 6 -33 -23z m83 -62 c-5 -5 -7 7 -4 29 5 34 6
35 9 8 2 -16 0 -32 -5 -37z"/>
<path d="M3117 1863 c-14 -13 -6 -23 19 -23 23 0 24 2 10 15 -16 17 -20 18
-29 8z"/>
<path d="M3180 1850 c0 -5 4 -10 9 -10 6 0 13 5 16 10 3 6 -1 10 -9 10 -9 0
-16 -4 -16 -10z"/>
<path d="M3220 1840 c-11 -7 -7 -10 18 -10 17 0 32 5 32 10 0 13 -30 13 -50 0z"/>
<path d="M2840 1816 c0 -3 15 -16 33 -30 33 -25 127 -46 127 -28 0 5 -22 12
-49 14 -28 3 -62 14 -80 27 -17 12 -31 20 -31 17z"/>
<path d="M3034 1751 c8 -12 119 -25 145 -16 42 13 8 25 -70 25 -45 0 -78 -4
-75 -9z"/>
</g>
</svg>
